# xmcd CD database file
#
# Track frame offsets:
#	150
#	15053
#	26255
#	37162
#	49818
#	59618
#	72070
#	87241
#	97121
#	110878
#	124884
#	136709
#	150064
#	173748
#	185617
#	200898
#	211041
#
# Disc length: 3072 seconds
#
# Revision: 1
# Processed by: cddbd v1.5.2PL0 Copyright (c) Steve Scherf et al.
# Submitted via: CDex 1.51
#
DISCID=e30bfe11
DTITLE=Instrumental - Country Party (Fiddle)
DYEAR=1999
DGENRE=Country
TTITLE0=Young at heart
TTITLE1=Oh lonesome me
TTITLE2=Bad moon rising
TTITLE3=Take me home, country roads
TTITLE4=From a jack to a king
TTITLE5=Nine to five
TTITLE6=He'll have to go
TTITLE7=Bye bye love
TTITLE8=Send me the pillow
TTITLE9=Harper Valley Pta
TTITLE10=Jambalaya
TTITLE11=Tennessee waltz
TTITLE12=Blanket on the ground
TTITLE13=Stand by your man
TTITLE14=Achy breaking heart
TTITLE15=Please help me i'm falling
TTITLE16=Coward of the county
EXTD=YEAR: 1999
EXTT0=
EXTT1=
EXTT2=
EXTT3=
EXTT4=
EXTT5=
EXTT6=
EXTT7=
EXTT8=
EXTT9=
EXTT10=
EXTT11=
EXTT12=
EXTT13=
EXTT14=
EXTT15=
EXTT16=
PLAYORDER=
